<svg xmlns="http://www.w3.org/2000/svg" viewBox="0 0 56.69 56.69" xmlns:v="https://vecta.io/nano"><defs><linearGradient id="A" x1="31.576" y1="2.027" x2="25.114" y2="54.663" gradientUnits="userSpaceOnUse"><stop offset="0" stop-color="#fff"/><stop offset="1" stop-color="#dbdddf"/></linearGradient><linearGradient id="B" x1="25.849" y1="48.673" x2="30.841" y2="8.017" gradientUnits="userSpaceOnUse"><stop offset="0" stop-color="#006aae"/></linearGradient></defs><path d="M28.35 56.69a28.35 28.35 0 1 1 28.34-28.34 28.38 28.38 0 0 1-28.34 28.34z" fill="#9c9b9b"/><circle cx="28.345" cy="28.345" r="26.515" fill="url(#A)"/><circle cx="28.345" cy="28.345" r="20.481" fill="url(#B)"/><g fill="#fff"><g transform="matrix(.954538 0 0 .954538 1.288626 1.288626)"><rect height="1.9" rx=".524" width="21.27" x="17.71" y="37.87"/><rect height="1.9" rx=".524" width="21.27" x="17.71" y="41.07"/></g><path d="M33.418 22.918l-4.62-11.512c-.073-.187-.253-.31-.453-.31s-.38.123-.453.31l-4.649 11.512-4.477 11.225c-.087.198-.034.43.132.569s.404.152.584.032l8.868-5.66 8.858 5.66c.18.12.418.107.584-.032s.22-.371.132-.569zm-3.675 2.129l-1.394 2.864-1.394-2.864-3.121-.449 2.272-2.205-.535-3.102 2.797 1.47 2.787-1.47-.535 3.102 2.253 2.205z"/></g></svg>
