<svg xmlns="http://www.w3.org/2000/svg" id="Capa_1" data-name="Capa 1" viewBox="0 0 566.93 566.93"><defs id="defs1"><style id="style1">.cls-1{font-family:&quot;Myriad Pro&quot;;font-size:44px;font-weight:400;fill:#fff}.cls-4{font-family:&quot;Adobe Devanagari&quot;;font-size:50px;font-weight:700}.cls-4,.cls-5{fill:#1c1c1b}</style></defs><circle id="circle1" cx="283.46" cy="283.46" r="279.21" style="fill:#fff"/><path id="path1" d="M283.79 452.09c101.73 0 189.18-74.38 207.09-174.35C508.7 178.27 449.6 69.13 339.25 38.76c-5.22-1.44-9.33-3.27-9.56-9.54-.27-7.26 3.43-11.43 10.62-10.45 14.84 2.02 29 6.83 42.69 12.66 89.11 37.98 145.16 104.32 163.7 199.27 27.91 142.94-64.52 280.36-205.44 311.29A267.57 267.57 0 0 1 22.33 340.84C-11.04 197.78 76.99 53.83 222.34 19.25c10.56-2.51 16.24 2.12 14.69 11.71-.84 5.23-4.65 6.52-8.89 7.66-27.42 7.4-52.44 19.73-74.62 37.45-45.93 36.7-73.02 84.44-79.07 142.78-7.37 71 16.34 131.27 68.9 179.39 38.78 35.51 88.84 53.84 140.43 53.84Z" style="fill:#1d1d1b"/><path id="text1" d="M8.98 0h3.87v-26.4h9.06v-3.26H-.04v3.26h9.02z" aria-label="T" class="cls-1" style="font-size:44px;font-family:&quot;Myriad Pro&quot;;fill:#fff" transform="rotate(21.45 -1236.08 753.22)"/><path id="text2" d="M18.66-9.33 21.82 0h4.1L15.8-29.66h-4.62L1.1 0h3.96l3.08-9.33zm-9.73-2.99 2.9-8.58q.86-2.7 1.5-5.37h.09c.44 1.72.88 3.48 1.54 5.41l2.9 8.54z" aria-label="A" class="cls-1" style="font-size:44px;font-family:&quot;Myriad Pro&quot;;fill:#fff" transform="rotate(15.87 -1731.7 1004.82)"/><path id="text3" d="M3.34 0h3.83v-12.85h3.61c3.48.13 5.06 1.67 5.94 5.77.84 3.7 1.5 6.24 1.98 7.08h3.96c-.62-1.14-1.32-4-2.29-8.14-.7-3.08-2.07-5.2-4.35-5.98v-.14c3.12-1.05 5.58-3.65 5.58-7.56 0-2.3-.83-4.32-2.33-5.64-1.85-1.67-4.49-2.42-8.58-2.42-2.64 0-5.41.22-7.35.62zm3.83-26.58c.62-.17 1.94-.35 3.79-.35 4.04.05 6.82 1.72 6.82 5.55 0 3.38-2.6 5.63-6.7 5.63h-3.9Z" aria-label="R" class="cls-1" style="font-size:44px;font-family:&quot;Myriad Pro&quot;;fill:#fff" transform="rotate(9.13 -3135.43 1743.2)"/><path id="text4" d="M3.34 0h3.83v-11.3L10-14.57 19.76 0h4.53L12.72-17.07l10.73-12.59H18.7L9.64-18.52a75 75 0 0 0-2.34 3.16h-.13v-14.3H3.34Z" aria-label="K" class="cls-1" style="font-size:44px;font-family:&quot;Myriad Pro&quot;;fill:#fff" transform="rotate(2.82 -10504.6 5590.64)"/><path id="text5" d="M1.85-1.45C3.43-.4 6.55.44 9.42.44c7 0 10.38-3.96 10.38-8.54 0-4.35-2.55-6.77-7.57-8.7-4.09-1.6-5.9-2.96-5.9-5.73 0-2.02 1.55-4.44 5.6-4.44 2.68 0 4.66.88 5.63 1.4l1.05-3.12c-1.32-.75-3.52-1.45-6.55-1.45-5.77 0-9.6 3.43-9.6 8.05 0 4.18 3 6.69 7.84 8.4 4 1.55 5.58 3.13 5.58 5.9 0 3-2.28 5.06-6.2 5.06-2.64 0-5.15-.88-6.86-1.93z" aria-label="S" class="cls-1" style="font-size:44px;font-family:&quot;Myriad Pro&quot;;fill:#fff" transform="rotate(-3.2 9536.16 -4895.26)"/><path id="text6" d="M13.82 0v-12.63l9.94-17.03H19.4l-4.26 8.19c-1.15 2.24-2.16 4.18-3 6.11h-.08c-.93-2.06-1.8-3.87-2.95-6.11l-4.18-8.19H.57l9.37 17.08V0Z" aria-label="Y" class="cls-1" style="font-size:44px;font-family:&quot;Myriad Pro&quot;;fill:#fff" transform="rotate(-9.18 3415.13 -1680.05)"/><path id="text7" d="M18.66-9.33 21.82 0h4.1L15.8-29.66h-4.62L1.1 0h3.96l3.08-9.33zm-9.73-2.99 2.9-8.58q.86-2.7 1.5-5.37h.09c.44 1.72.88 3.48 1.54 5.41l2.9 8.54z" aria-label="A" class="cls-1" style="font-size:44px;font-family:&quot;Myriad Pro&quot;;fill:#fff" transform="rotate(-14.9 2154.9 -1015.8)"/><path id="text8" d="M1.85-1.45C3.43-.4 6.55.44 9.42.44c7 0 10.38-3.96 10.38-8.54 0-4.35-2.55-6.77-7.57-8.7-4.09-1.6-5.9-2.96-5.9-5.73 0-2.02 1.55-4.44 5.6-4.44 2.68 0 4.66.88 5.63 1.4l1.05-3.12c-1.32-.75-3.52-1.45-6.55-1.45-5.77 0-9.6 3.43-9.6 8.05 0 4.18 3 6.69 7.84 8.4 4 1.55 5.58 3.13 5.58 5.9 0 3-2.28 5.06-6.2 5.06-2.64 0-5.15-.88-6.86-1.93z" aria-label="S" class="cls-1" style="font-size:44px;font-family:&quot;Myriad Pro&quot;;fill:#fff" transform="rotate(-21.27 1544.72 -706.84)"/><path id="text9" d="M.44-21.29h14.94v3.54c-1.66-.05-3.59-.1-5.64-.1-6.69 0-8 3.45-8 6.06 0 4.4 3.75 9.62 7.8 12.57l.37-.07 1.76-3.86C7.32-5.55 5.3-7 5.3-9.52c0-1.15.46-2.2 1.54-3 1.07-.81 2.78-1.25 6.54-1.25h1.98L15.28-.51 19.17.6l.34-.24-.1-21.66h4.25l.34-.46-1.66-3.35H-.88l-.34.47z" aria-label="त" class="cls-4" style="font-weight:700;font-size:50px;font-family:&quot;Adobe Devanagari&quot;;fill:#1c1c1b" transform="rotate(-13.71 522.8 -878.68)"/><path id="text10" d="M1.95-12.52c0 1.2.52 1.78 1.69 1.78s1.88-.59 1.88-1.78c0-1.23-.71-1.79-1.88-1.79s-1.69.56-1.69 1.79m22.42 0q0 1.79 1.75 1.78 1.82 0 1.81-1.78c0-1.23-.59-1.79-1.8-1.79-1.18 0-1.76.56-1.76 1.79M13.13-23.75q-.01 1.81 1.76 1.83c1.2 0 1.86-.64 1.86-1.83 0-1.23-.66-1.81-1.86-1.81q-1.78-.02-1.76 1.8m0 22.48Q13.12.51 14.9.49c1.2 0 1.86-.56 1.86-1.76 0-1.17-.66-1.83-1.86-1.83s-1.76.66-1.76 1.83m9.82-16.92q0 1.83 1.78 1.83c1.22 0 1.76-.6 1.76-1.83 0-1.22-.54-1.76-1.76-1.76-1.2 0-1.78.54-1.78 1.76m0 11.3c0 1.23.59 1.76 1.78 1.76 1.22 0 1.76-.53 1.76-1.75 0-1.15-.54-1.81-1.76-1.81-1.2 0-1.78.66-1.78 1.8m-19.6-11.3c0 1.22.5 1.83 1.73 1.83 1.2 0 1.85-.6 1.85-1.83 0-1.22-.66-1.76-1.85-1.76-1.22 0-1.74.54-1.74 1.76m0 11.3c0 1.23.5 1.76 1.73 1.76 1.2 0 1.85-.53 1.85-1.75 0-1.15-.66-1.81-1.85-1.81-1.22 0-1.74.66-1.74 1.8m4.17-15.47c0 1.2.51 1.83 1.73 1.83s1.88-.64 1.88-1.83c0-1.18-.66-1.76-1.88-1.76s-1.73.58-1.73 1.76m11.2 0c0 1.2.69 1.83 1.84 1.83 1.22 0 1.75-.64 1.75-1.83 0-1.18-.53-1.76-1.75-1.76-1.15 0-1.83.58-1.83 1.76M7.53-2.66c0 1.2.51 1.76 1.73 1.76s1.88-.56 1.88-1.76c0-1.17-.66-1.83-1.88-1.83s-1.73.66-1.73 1.83m11.2 0c0 1.2.69 1.76 1.84 1.76 1.22 0 1.75-.56 1.75-1.76 0-1.17-.53-1.83-1.75-1.83-1.15 0-1.83.66-1.83 1.83m11.6-18.63h2.57l-.1 20.75L36.72.61l.34-.24-.1-21.66h4.25l.34-.46-1.66-3.35H29l-.34.47z" aria-label="ा" class="cls-4" style="font-weight:700;font-size:50px;font-family:&quot;Adobe Devanagari&quot;;fill:#1c1c1b" transform="rotate(-9.41 692.52 -1439.84)"/><path id="text11" d="M.44-21.29h7.91q.21.85.2 1.86c0 1.8-.37 2.9-.9 3.61a37 37 0 0 0-3.04-.1q-1.67.02-2.3 1.03c-.3.53-.4.97-.4 1.36 0 .52.34 1.47.92 2.52C5.15-6.71 9.06-2.78 14.03.93h.37l1.88-4.15c-3.78-1.8-6.98-3.79-9-5.98 3.12-1.74 5.32-4.2 5.32-9.09 0-1-.08-1.97-.27-3h5.61l.35-.46-1.66-3.35H-.87l-.35.47z" aria-label="र" class="cls-4" style="font-weight:700;font-size:50px;font-family:&quot;Adobe Devanagari&quot;;fill:#1c1c1b" transform="rotate(-6.01 1004.6 -2378.45)"/><path id="text12" d="M1.95-12.52c0 1.2.52 1.78 1.69 1.78s1.88-.59 1.88-1.78c0-1.23-.71-1.79-1.88-1.79s-1.69.56-1.69 1.79m22.42 0q0 1.79 1.75 1.78 1.82 0 1.81-1.78c0-1.23-.59-1.79-1.8-1.79-1.18 0-1.76.56-1.76 1.79M13.13-23.75q-.01 1.81 1.76 1.83c1.2 0 1.86-.64 1.86-1.83 0-1.23-.66-1.81-1.86-1.81q-1.78-.02-1.76 1.8m0 22.48Q13.12.51 14.9.49c1.2 0 1.86-.56 1.86-1.76 0-1.17-.66-1.83-1.86-1.83s-1.76.66-1.76 1.83m9.82-16.92q0 1.83 1.78 1.83c1.22 0 1.76-.6 1.76-1.83 0-1.22-.54-1.76-1.76-1.76-1.2 0-1.78.54-1.78 1.76m0 11.3c0 1.23.59 1.76 1.78 1.76 1.22 0 1.76-.53 1.76-1.75 0-1.15-.54-1.81-1.76-1.81-1.2 0-1.78.66-1.78 1.8m-19.6-11.3c0 1.22.5 1.83 1.73 1.83 1.2 0 1.85-.6 1.85-1.83 0-1.22-.66-1.76-1.85-1.76-1.22 0-1.74.54-1.74 1.76m0 11.3c0 1.23.5 1.76 1.73 1.76 1.2 0 1.85-.53 1.85-1.75 0-1.15-.66-1.81-1.85-1.81-1.22 0-1.74.66-1.74 1.8m4.17-15.47c0 1.2.51 1.83 1.73 1.83s1.88-.64 1.88-1.83c0-1.18-.66-1.76-1.88-1.76s-1.73.58-1.73 1.76m11.2 0c0 1.2.69 1.83 1.84 1.83 1.22 0 1.75-.64 1.75-1.83 0-1.18-.53-1.76-1.75-1.76-1.15 0-1.83.58-1.83 1.76M7.53-2.66c0 1.2.51 1.76 1.73 1.76s1.88-.56 1.88-1.76c0-1.17-.66-1.83-1.88-1.83s-1.73.66-1.73 1.83m11.2 0c0 1.2.69 1.76 1.84 1.76 1.22 0 1.75-.56 1.75-1.76 0-1.17-.53-1.83-1.75-1.83-1.15 0-1.83.66-1.83 1.83m-4.39 8.32.2.15q1.07-.17 2.14-.15c3.89 0 6.52 2.5 10.53 6.4h.29l.95-1.54c-2.7-2.63-5.56-5.4-7.54-6.8a11 11 0 0 0-6.47-2.16q-.83 0-1.66.08z" aria-label="्" class="cls-4" style="font-weight:700;font-size:50px;font-family:&quot;Adobe Devanagari&quot;;fill:#1c1c1b" transform="rotate(-3.88 1471.68 -3959.05)"/><path id="text13" d="M.44-21.29h13.43v3.59c-2.22-.7-4.03-.95-5.54-.95-3.81 0-6.67 2.3-6.67 5.86 0 1.75.93 3.51 2.2 4.98 1.73 1.78 3.4 3.05 5.98 3.05a6.4 6.4 0 0 0 4-1.27l.05.02-.12 5.5L17.55.6l.35-.24-.05-9.72c1.97-2.3 4.12-3.88 5.88-3.88.85 0 1.22.41 1.22 1.32 0 1.88-1.56 4.59-3.66 7.2l3.64 2.8h.34c1.85-2.44 3.05-5.27 3.05-7.73 0-1.81-.63-3.52-2.05-5.06a5.8 5.8 0 0 0-4.5-2.1c-1.16 0-2.68.5-3.9 1.42l-.07-.05v-5.86h12.52l.34-.46L29-25.1H-.88l-.34.47zm13.48 9.91C12.04-9.42 10.08-8.5 8.2-8.5c-1.63 0-2.6-.63-2.6-1.95 0-2.4 1.87-4.47 5.95-4.47.83 0 1.68.08 2.37.22z" aria-label="क" class="cls-4" style="font-weight:700;font-size:50px;font-family:&quot;Adobe Devanagari&quot;;fill:#1c1c1b" transform="rotate(-.21 24704.3 -73817.34)"/><path id="text14" d="M1.95-12.52c0 1.2.52 1.78 1.69 1.78s1.88-.59 1.88-1.78c0-1.23-.71-1.79-1.88-1.79s-1.69.56-1.69 1.79m22.42 0q0 1.79 1.75 1.78 1.82 0 1.81-1.78c0-1.23-.59-1.79-1.8-1.79-1.18 0-1.76.56-1.76 1.79M13.13-23.75q-.01 1.81 1.76 1.83c1.2 0 1.86-.64 1.86-1.83 0-1.23-.66-1.81-1.86-1.81q-1.78-.02-1.76 1.8m0 22.48Q13.12.51 14.9.49c1.2 0 1.86-.56 1.86-1.76 0-1.17-.66-1.83-1.86-1.83s-1.76.66-1.76 1.83m9.82-16.92q0 1.83 1.78 1.83c1.22 0 1.76-.6 1.76-1.83 0-1.22-.54-1.76-1.76-1.76-1.2 0-1.78.54-1.78 1.76m0 11.3c0 1.23.59 1.76 1.78 1.76 1.22 0 1.76-.53 1.76-1.75 0-1.15-.54-1.81-1.76-1.81-1.2 0-1.78.66-1.78 1.8m-19.6-11.3c0 1.22.5 1.83 1.73 1.83 1.2 0 1.85-.6 1.85-1.83 0-1.22-.66-1.76-1.85-1.76-1.22 0-1.74.54-1.74 1.76m0 11.3c0 1.23.5 1.76 1.73 1.76 1.2 0 1.85-.53 1.85-1.75 0-1.15-.66-1.81-1.85-1.81-1.22 0-1.74.66-1.74 1.8m4.17-15.47c0 1.2.51 1.83 1.73 1.83s1.88-.64 1.88-1.83c0-1.18-.66-1.76-1.88-1.76s-1.73.58-1.73 1.76m11.2 0c0 1.2.69 1.83 1.84 1.83 1.22 0 1.75-.64 1.75-1.83 0-1.18-.53-1.76-1.75-1.76-1.15 0-1.83.58-1.83 1.76M7.53-2.66c0 1.2.51 1.76 1.73 1.76s1.88-.56 1.88-1.76c0-1.17-.66-1.83-1.88-1.83s-1.73.66-1.73 1.83m11.2 0c0 1.2.69 1.76 1.84 1.76 1.22 0 1.75-.56 1.75-1.76 0-1.17-.53-1.83-1.75-1.83-1.15 0-1.83.66-1.83 1.83m-4.39 8.32.2.15q1.07-.17 2.14-.15c3.89 0 6.52 2.5 10.53 6.4h.29l.95-1.54c-2.7-2.63-5.56-5.4-7.54-6.8a11 11 0 0 0-6.47-2.16q-.83 0-1.66.08z" aria-label="्" class="cls-4" style="font-weight:700;font-size:50px;font-family:&quot;Adobe Devanagari&quot;;fill:#1c1c1b" transform="rotate(3.49 -1333.98 4963.24)"/><path id="text15" d="M.44-21.29H2.7q-.07 1.99-.07 4.35c0 5.22 1.17 7.05 4.1 9.15a8.3 8.3 0 0 0 4.76 1.71q1.72 0 3.34-.98l-.1 6.55L18.64.6l.34-.24-.1-21.66h4.25l.34-.46-1.66-3.35H-.88l-.34.47zM13.28-11.2A6.2 6.2 0 0 1 9.6-9.77c-2.58 0-2.73-2.51-2.73-6.95 0-1.03 0-2.05.02-2.93l.1-.03zm-4.8-10.08h6.41v6.6c0 .65-.07 1.29-.24 1.75l-.12-.02-6.13-8.26z" aria-label="ष" class="cls-4" style="font-weight:700;font-size:50px;font-family:&quot;Adobe Devanagari&quot;;fill:#1c1c1b" transform="rotate(6.27 -672.88 2777.17)"/><path id="text16" d="M1.95-12.52c0 1.2.52 1.78 1.69 1.78s1.88-.59 1.88-1.78c0-1.23-.71-1.79-1.88-1.79s-1.69.56-1.69 1.79m22.42 0q0 1.79 1.75 1.78 1.82 0 1.81-1.78c0-1.23-.59-1.79-1.8-1.79-1.18 0-1.76.56-1.76 1.79M13.13-23.75q-.01 1.81 1.76 1.83c1.2 0 1.86-.64 1.86-1.83 0-1.23-.66-1.81-1.86-1.81q-1.78-.02-1.76 1.8m0 22.48Q13.12.51 14.9.49c1.2 0 1.86-.56 1.86-1.76 0-1.17-.66-1.83-1.86-1.83s-1.76.66-1.76 1.83m9.82-16.92q0 1.83 1.78 1.83c1.22 0 1.76-.6 1.76-1.83 0-1.22-.54-1.76-1.76-1.76-1.2 0-1.78.54-1.78 1.76m0 11.3c0 1.23.59 1.76 1.78 1.76 1.22 0 1.76-.53 1.76-1.75 0-1.15-.54-1.81-1.76-1.81-1.2 0-1.78.66-1.78 1.8m-19.6-11.3c0 1.22.5 1.83 1.73 1.83 1.2 0 1.85-.6 1.85-1.83 0-1.22-.66-1.76-1.85-1.76-1.22 0-1.74.54-1.74 1.76m0 11.3c0 1.23.5 1.76 1.73 1.76 1.2 0 1.85-.53 1.85-1.75 0-1.15-.66-1.81-1.85-1.81-1.22 0-1.74.66-1.74 1.8m4.17-15.47c0 1.2.51 1.83 1.73 1.83s1.88-.64 1.88-1.83c0-1.18-.66-1.76-1.88-1.76s-1.73.58-1.73 1.76m11.2 0c0 1.2.69 1.83 1.84 1.83 1.22 0 1.75-.64 1.75-1.83 0-1.18-.53-1.76-1.75-1.76-1.15 0-1.83.58-1.83 1.76M7.53-2.66c0 1.2.51 1.76 1.73 1.76s1.88-.56 1.88-1.76c0-1.17-.66-1.83-1.88-1.83s-1.73.66-1.73 1.83m11.2 0c0 1.2.69 1.76 1.84 1.76 1.22 0 1.75-.56 1.75-1.76 0-1.17-.53-1.83-1.75-1.83-1.15 0-1.83.66-1.83 1.83m-4.39 8.32.2.15q1.07-.17 2.14-.15c3.89 0 6.52 2.5 10.53 6.4h.29l.95-1.54c-2.7-2.63-5.56-5.4-7.54-6.8a11 11 0 0 0-6.47-2.16q-.83 0-1.66.08z" aria-label="्" class="cls-4" style="font-weight:700;font-size:50px;font-family:&quot;Adobe Devanagari&quot;;fill:#1c1c1b" transform="rotate(9.06 -424.84 2072.03)"/><path id="text17" d="M.44-21.29h6q.61.73.62 1.69c0 1.97-2.37 2.95-5.86 3.73l-.27.46c2.41 6.77 6 10.26 10.84 10.26q2.25.02 3.93-1.03L15.6-.5 19.48.6l.34-.24-.1-21.66h4.25l.35-.46-1.66-3.35H-.88l-.34.47zm15.3 7.64c0 1.37-.46 2.25-1.26 2.9a7 7 0 0 1-4.35 1.5c-2.66 0-4.27-1.1-4.78-3.1 3.44-.8 5.49-2.23 5.49-4.6 0-1.53-.63-2.92-1.4-4.34h6.3Z" aria-label="य" class="cls-4" style="font-weight:700;font-size:50px;font-family:&quot;Adobe Devanagari&quot;;fill:#1c1c1b" transform="rotate(11.95 -281.05 1577.92)"/><g id="g26"><path id="path17" d="M213.15 102.87V72.75c-60.82 24.67-105.73 80.34-115.1 147.43h27.79c8.53-51.61 41.86-94.95 87.31-117.32Z" class="cls-5"/><path id="path18" d="M126.68 277.22H98.77c13.25 79.81 76.94 142.56 157.22 154.36v-27.86c-64.99-11.31-116.62-61.99-129.31-126.5" class="cls-5"/><path id="path19" d="M441.1 220.18h27.79c-9.38-67.09-54.28-122.77-115.1-147.43v30.12c45.45 22.37 78.78 65.71 87.31 117.32Z" class="cls-5"/><path id="path20" d="M310.94 403.72v27.86c80.29-11.81 143.97-74.55 157.22-154.36h-27.91c-12.69 64.51-64.32 115.19-129.31 126.5" class="cls-5"/><path id="path21" d="M387.26 215.46a108 108 0 0 0 29.43 4.67 135.9 135.9 0 0 0-105.72-106.78c.1 10.23 1.63 20.12 4.41 29.48a108.8 108.8 0 0 1 71.89 72.63Z" class="cls-5"/><path id="path22" d="M255.88 379.28a106 106 0 0 0-5.64-29.9 108.8 108.8 0 0 1-68.97-67.28 106 106 0 0 0-29.99-4.84 135.9 135.9 0 0 0 104.6 102.02" class="cls-5"/><path id="path23" d="M150.24 220.14c10.2-.14 20.05-1.7 29.38-4.51a108.7 108.7 0 0 1 72.11-72.85 107 107 0 0 0 4.25-29.44 135.9 135.9 0 0 0-105.74 106.8" class="cls-5"/><path id="path24" d="M385.76 281.83a108.8 108.8 0 0 1-69.37 67.66c-3.15 9.42-5 19.42-5.35 29.8a135.9 135.9 0 0 0 104.63-102.05c-10.39.1-20.43 1.69-29.9 4.59Z" class="cls-5"/><path id="path25" d="M283.47 220.74a25.59 25.59 0 1 0 0 51.17 25.59 25.59 0 0 0 0-51.17" class="cls-5"/><path id="path26" d="M470.29 233.92h-51.64a122 122 0 0 1-28.04-3.34 122 122 0 0 1-90.33-91.24 121 121 0 0 1-3.07-27.06v-1.09h-.75a136 136 0 0 0-25.96 0h-.75v1.74c0 9.06-1.03 17.88-2.93 26.38a121.3 121.3 0 0 1-90.49 91.4 121 121 0 0 1-27.57 3.21h-52.1c-.27 4.11-.45 8.23-.45 12.41q.02 8.68.82 17.15h52.31c9.57 0 18.88 1.16 27.81 3.28a120.8 120.8 0 0 1 88.61 86.39 120 120 0 0 1 3.93 28.25l.06 2.49v49.15c4.54.33 9.11.56 13.73.56s9.2-.23 13.74-.56v-50.13q.01-.76.04-1.51c.12-9.72 1.38-19.17 3.71-28.21a119.8 119.8 0 0 1 88.89-86.64 120 120 0 0 1 26.79-3.07h53.29c.51-5.65.82-11.37.82-17.15 0-4.17-.19-8.3-.45-12.41Zm-187 87.45a148.8 148.8 0 0 0-74.37-72.78 149.3 149.3 0 0 0 74.66-73.66 150 150 0 0 0 74.3 73.37 147.7 147.7 0 0 0-74.59 73.07" class="cls-5"/></g></svg>