<svg xmlns="http://www.w3.org/2000/svg" viewBox="0 0 113.4 113.3"><circle cx="56.7" cy="56.7" r="56.2" fill="#fff"/><path fill="#e21b15" d="M0 56.7C0 25.4 25.4 0 56.7 0s56.7 25.4 56.7 56.7-25.4 56.7-56.8 56.6C25.3 113.3 0 87.9 0 56.7m112.4.2A55.7 55.7 0 0 0 56.7 1C25.7.9.7 25.8.7 56.8a55.7 55.7 0 0 0 55.7 55.9c31 0 56-24.9 56-55.8"/><path fill="#fdd600" d="M112.4 56.9c0 31-25 55.9-56 55.8A55.7 55.7 0 0 1 .7 56.8c0-31 25-55.9 56-55.8 30.9 0 55.8 24.9 55.7 55.9M56.6 4.1C27.7 3.9 3.9 27.8 3.8 56.7c0 28.9 23.8 52.7 52.7 52.7s52.7-23.8 52.7-52.7C109.3 27.9 85.5 4 56.6 4.1"/><path fill="#df0708" d="M56.6 4.1c28.9-.2 52.7 23.8 52.7 52.7s-23.8 52.7-52.7 52.7c-29 0-52.8-23.8-52.8-52.8.1-28.9 23.9-52.8 52.8-52.6M18.9 30.3c-1.8-.3-3.5-.6-5.2-.9-.4.4-.8.6-.6 1.2 2.3.4 4.6.7 6.8 1.1.9 1 .8 2 .3 3 .3.2.4.5.8.4.8-.7 1-1.6.7-2.6-1.1-2.9-3.1-5.2-4.7-7.9-.4.5-.7.8-.7 1.2l2.8 4.3c-.1.1-.2.1-.2.2M33.4 19c-1.8-1.5-3.6-3-5.4-4.4-.6.2-1 .4-1.4.9 1.4 2.6 2.7 5.3 4.1 7.9.5 0 .8-.2 1.1-.7-.9-1.8-1.9-3.6-2.8-5.5.1-.1.2-.1.2-.2l5 4.1c.5 0 .8-.2 1-.5-.4-2.1-.8-4.3-1.3-6.5.1 0 .2-.1.3-.1l3.6 5.1c.4-.2.8-.3 1-.8-1.7-2.4-3.4-4.9-5.2-7.4-.5.3-1 .5-1.4 1 .4 2.2.9 4.5 1.3 6.8 0 .2-.1.3-.1.3m60.1 54.1c1.6 0 3.1.7 4.7.5 0 .1.1.2.3.1-.1 0-.2-.1-.3-.1-1.2-1-2.7-1.3-3.9-2.2 2.6-6.9 3.4-13.9 2.2-21.2-1.7-9.9-6.3-18.2-14.1-24.5-9.9-8.1-21.2-10.9-33.8-8.5-7.8 1.5-14.5 5.1-20.2 10.7-.2 0-.3-.1-.6-.1 0 .2.1.4.1.6-.4.3-.7.7-1.1 1.1-10 11.4-12.9 24.5-8.9 39.1 1.7 6 4.8 11.3 9.1 15.8h58.9c2.6-2.4 5.9-7.3 7.6-11.3m-88-20.9c3 .6 5.9 1.1 9 1.7.6-3.2 1.2-6.3 1.8-9.4-3.1-.6-6.1-1.2-9-1.7-.2.5-.4.8-.3 1.3 2.5.5 5.1 1 7.7 1.6-.1 1-.2 1.9-.5 2.7-2.6-.5-5.2-1-7.7-1.5-.4.4-.5.8-.3 1.3 2.6.5 5.1 1 7.7 1.6 0 1-.2 1.8-.5 2.7L5.6 51c-.2.3-.1.7-.1 1.2m55.8 46.2c.5.2.8.3 1.2 0 0-.6.1-1.2.1-1.8H68c.3.7 0 1.3.3 1.9.4.2.7.2 1.1-.1v-2.8c-.1-.4-.8-.2-.9-.7v-7.4h-5.4c-.1 1.6-.1 3.2-.3 4.7-.2 1.2-.1 2.7-1.6 3.3.1 1 .1 1.9.1 2.9M50.8 15c1 .3 1.9.2 2.7.2 1.3-.1 2.5-.4 3-1.8s-.1-2.5-1.3-3.2c1.7-1.6 1.5-3.4-.3-4.1a6.4 6.4 0 0 0-4.1 0zm-.9 81.3c.5.2.9.3 1.1-.1v-8.6c-.5-.2-.9-.1-1.4-.1-1.4 2.1-2.9 4.2-4.3 6.4-.1 0-.2-.1-.3-.1v-6.2c-.4-.2-.8-.2-1.1 0v8.8c.5.1.9.2 1.4-.1l4.3-6.4c.1 0 .2.1.2.1.1 2 .1 4.1.1 6.3M43.3 17c2.5 0 4.3-1.7 4.3-4.2 0-2.9-2-5.4-4.4-5.4S39 9.2 39 11.7c-.1 3 1.8 5.3 4.3 5.3m48.4 16.2c0 2.2 2 4.2 4.1 4.2 2.6 0 5.4-2.4 5.4-4.7s-1.9-4.2-4.2-4.2c-2.6-.1-5.3 2.3-5.3 4.7m.1-13.2c-2.2 2.1-4.3 4.2-6.5 6.2.6.9 1.2 1.6 1.9 2.1 1 .8 2 1.4 3.3.8s1.5-1.7 1.4-2.9c0-.1.1-.1.1-.3 1.1.1 2.1-.2 2.6-1.3.5-1.2-.2-2.1-.9-2.9-.5-.6-1-1.2-1.9-1.7m-19-1.6c1-2.9 1.9-5.7 2.9-8.5-1.2-.8-2.4-1.2-3.7-1.3-1.6-.1-2.8 1.2-2.6 2.8.1.7.6 1.1.8 1.7-1.5.7-2.2 2.2-3.4 3.5.6.1 1 .4 1.3.4 1.4-1.1 1.8-3.8 4.6-2.5-.4 1.2-.8 2.4-1.1 3.5.4.3.7.4 1.2.4M36.6 92.9c1.3-.2 2.5.1 3.7-.3 1.1-.4 1.8-1.3 1.8-2.6 0-1.2-.7-2.3-1.8-2.5-1.7-.3-3.3-.1-5-.1v8.9c.5 0 .9.2 1.3-.2zM64.1 6.7c-.6-.2-1.1-.3-1.7-.1-1.4 2.8-2.9 5.6-4.4 8.5.7.1 1.1.2 1.5 0 .4-.8.8-1.6 1.3-2.4 1 .1 2 .3 3 .4.2 1 .4 2 .6 2.9.5.2.9.3 1.4.1-.5-3.2-1.1-6.3-1.7-9.4m33.1 39.9c0 .6 0 1 .3 1.4.9.4 2 .2 2.9.8-.1 1 .4 1.9.2 2.9-.9.5-1.7.9-2.7 1.4.2.5.1.9.4 1.3 2.8-1.4 5.7-2.7 8.5-4.1.1-.6.1-1.1-.1-1.6-3.1-.7-6.2-1.4-9.5-2.1M78.1 96.3v-8.9c-.4-.1-.8-.2-1.2.1v3.4h-4.5v-3.5c-.5-.1-.8-.2-1.2 0v8.8c.4.1.8.2 1.2-.1.1-1.3-.1-2.6.2-3.9H77v4.1zm-44.2-.1c-1.2-2.9-2.4-5.9-3.6-8.9-.6 0-1-.1-1.5.2l-3.3 8.7c.5.1.9.2 1.4 0 .3-.8.6-1.7.9-2.6h3.6c.4.9.7 1.8 1 2.6.7.2 1.1.3 1.5 0m53.9 0c-1.2-2.9-2.3-5.9-3.5-8.8-.6 0-1-.1-1.5.2l-3.3 8.7c.5.2.9.2 1.3 0 .5-.8.5-1.8 1.1-2.6h3.5c.4.9.7 1.8 1.1 2.7.4 0 .8.1 1.3-.2m-27.2 0c-1.2-2.9-2.4-5.9-3.5-8.8-.6 0-1.1-.1-1.5.1-1.1 2.9-2.2 5.8-3.2 8.7.6.2 1 .3 1.4 0 .3-.8.6-1.7.9-2.6h3.6c.4.9.7 1.8 1.1 2.7.3.1.7.2 1.2-.1m38.5-55c.4.9.6 1.7 1.1 2.4.8 1 1.9 1.3 3.1.9s1.9-1.3 1.8-2.5c0-1.3-.4-2.6-1.2-3.7-2.9.9-5.7 1.8-8.6 2.6 0 .5.1.9.4 1.3 1.2-.4 2.3-.7 3.4-1M26.3 27.8c-.7-.8-1.5-1.6-2.3-2.4.5-.6 1-1.1 1.4-1.6.9-1.3.7-2.7-.4-3.7s-2.3-1-3.6 0c-.8.6-1.6 1.4-2.2 2.4 2.2 2 4.4 4.1 6.6 6.1 0-.2.4-.3.5-.8m57.8-4.2c-1.7-.7-3.1-1.5-3.2-3.5-.1-1.4 1.1-3.2 2.5-3.8 2-.8 3.3.3 4.6 1.7.3-.2.6-.3.7-.7a4.9 4.9 0 0 0-5.7-2.2c-2.2.7-3.7 3.1-3.4 5.4.2 1.9 2.1 3.7 4.2 3.9.4-.1.4-.4.3-.8M10.7 37.3c2.5 1.1 4.9 2.2 7.3 3.3.3-.4.6-.7.4-1.3-2.3-1.1-4.7-2.2-7.1-3.3.4-.9.7-1.7 1-2.4-.3-.4-.6-.6-1.1-.3-.9 1.9-1.8 3.9-2.7 5.9.4.2.6.5 1.1.3.4-.6.7-1.3 1.1-2.2"/><path fill="#130b0b" d="M27.9 28.4c0-.2-.1-.4-.1-.6.2 0 .4.1.6.1.5.4 1.1.7 1.7.9.4.2.7.4 1.1.6l52.5 26.7c1.2.6 2.6 1.1 3.7 2h-1.1L66 54.8c-2-.3-4-.6-6.1-1 .3.6.7.6 1 .8 2.4 1.3 4.9 2.5 7.3 3.7 8 4.1 16.1 8.1 24.1 12.2.6.4 1.1.8 1.8.9 1.2.9 2.7 1.3 3.9 2.2-1.6.1-3.1-.5-4.7-.5-.6-.3-1.3-.3-2-.4-5-.8-10.1-1.7-15.1-2.5l-14.9-2.4c-.2-.1-.4-.3-.7 0 .2 0 .4.1.6.1.2.2.5.3.7.4l14.7 7.5c1.4.7 2.9 1.3 4.1 2.2h-1.1c-6.2-1-12.5-2.1-18.7-3.1-8.9-1.5-17.8-2.9-26.7-4.4L27 69.3C25.6 64.1 24.1 59 22.8 54c-.5-2-1.4-4-1.5-6.1.5 0 .9.3 1.3.5 6.2 3.1 12.3 6.2 18.5 9.4.4.2.7.5 1.4.5-.7-2.6-1.4-5.2-2.1-7.7-2.4-.4-4.6-.8-6.8-1.2-.3-1-.5-1.8-.7-2.7l-4.5-16.2c-.2-.6-.4-1.4-.5-2.1m10.8 15c.5 0 .8.3 1.1.5L55.7 52c.8.4 1.5.6 2.4.7 6.3 1 12.6 2.1 18.9 3.1 1.8.3 3.7.6 5.6.9 0-.1.1-.2.1-.3-17.9-9-35.7-18.1-53.8-27.3 1.9 6.8 3.7 13.2 5.4 19.6 2 .3 3.9.6 5.9 1-.2-.9-.5-1.7-.6-2.4-.3-1.3-1-2.5-.9-3.9M27.8 68.7C43.9 71.4 60 74 76 76.7c0-.1.1-.2.1-.3-17.8-9.1-35.6-18.1-53.8-27.3zm65.5 3.5c0-.1.1-.2.1-.3-17.9-9-35.7-18.1-53.8-27.3 1.4 5.1 2.7 9.8 4 14.4 4.7 2.4 9.4 4.8 14.1 7.1.6.3 1.2.4 1.8.5 9.4 1.6 18.8 3.1 28.3 4.7 1.8.3 3.6.6 5.5.9"/><path fill="#fcd400" d="M27.9 28.4c.2.7.4 1.4.5 2.2-.2.1-.3.3-.5.4-8.4 10.1-11.9 21.5-8.8 34.5 1.5 6.4 4.5 12.1 8.8 17.1h57.2c2.6-3 4.7-6.2 6.3-9.9.7.1 1.4.1 2 .4-1.7 4-5 8.9-7.5 11.3H27c-4.3-4.5-7.4-9.8-9.1-15.8-4-14.6-1.1-27.7 8.9-39.1.3-.4.7-.7 1.1-1.1"/><path fill="#fcd100" d="M30.1 28.8c-.6-.2-1.2-.5-1.7-.9a38.3 38.3 0 0 1 20.2-10.7c12.5-2.4 23.9.4 33.8 8.5 7.8 6.4 12.4 14.6 14.1 24.5 1.2 7.2.4 14.3-2.2 21.2-.7-.1-1.3-.5-1.8-.9 2.4-6.2 3.3-12.6 2.3-19.2-1.4-8.5-4.9-16.1-11.1-22-8.4-8-18.5-11.9-30.1-10.9a39 39 0 0 0-23.5 10.4M5.5 52.2c-.1-.6-.1-.9.2-1.3q3.75.75 7.8 1.5c.2-.9.5-1.7.5-2.7-2.5-.5-5.1-1-7.7-1.6-.2-.5-.1-.9.3-1.3 2.5.5 5.1 1 7.7 1.5.4-.8.4-1.7.5-2.7-2.6-.5-5.2-1.1-7.7-1.6-.2-.5 0-.8.3-1.3 2.9.6 5.8 1.1 9 1.7-.6 3.1-1.2 6.2-1.8 9.4-3.1-.4-6.1-1-9.1-1.6"/><path fill="#fcd001" d="M33.6 18.8c-.4-2.3-.9-4.5-1.3-6.8.4-.5.8-.7 1.4-1 1.8 2.5 3.5 5 5.2 7.4-.2.6-.6.6-1 .8l-3.6-5.1c-.1 0-.2.1-.3.1.4 2.2.8 4.3 1.3 6.5-.2.4-.5.5-1 .5l-5-4.1c-.1.1-.2.1-.2.2 1 1.8 1.9 3.7 2.8 5.5-.2.5-.5.7-1.1.7-1.4-2.6-2.7-5.3-4.1-7.9.4-.5.8-.7 1.4-.9 1.8 1.4 3.6 2.9 5.4 4.4.1.1.1.2.3.1-.2-.2-.2-.3-.2-.4m.2-4.9c.1-.1.1-.1 0-.2-.1.1-.1.2 0 .2"/><path fill="#fdd600" d="M61.3 98.4v-2.9c1.5-.6 1.4-2 1.6-3.3.2-1.5.2-3.1.3-4.7h5.4v7.4c.1.5.7.3.9.7v2.8c-.4.3-.7.3-1.1.1-.3-.6 0-1.2-.3-1.9h-5.4c-.1.7-.1 1.3-.1 1.8-.5.2-.9.2-1.3 0m6-9.7h-2.9c-.2 2.2-.3 4.4-1.1 6.6 1.4 0 2.7.1 3.9-.1.1-2.2.1-4.3.1-6.5"/><path fill="#fbc801" d="M50.8 15V6c1.4-.4 2.7-.5 4.1 0 1.8.7 2 2.5.3 4.1 1.3.7 1.8 1.8 1.3 3.2s-1.7 1.7-3 1.8c-.8.1-1.7.2-2.7-.1m1.4-4.2c0 1.1-.1 2.1.1 3.2 1 .1 2.1.3 2.7-.7.4-.5.4-1.1 0-1.6-.7-1-1.7-1-2.8-.9m0-1.3c.9.4 1.8.3 2.5-.5.4-.5.4-1.1 0-1.6-.7-.8-1.6-.6-2.5-.4z"/><path fill="#fcd300" d="M49.9 96.3V90c-.1 0-.2-.1-.2-.1l-4.3 6.4c-.5.2-.9.1-1.4.1v-8.8c.3-.3.7-.2 1.1 0v6.2c.1 0 .2.1.3.1l4.3-6.4c.5-.1.9-.1 1.4.1v8.6c-.3.4-.7.2-1.2.1"/><path fill="#fcd001" d="M43.3 17c-2.5 0-4.4-2.3-4.4-5.2 0-2.4 1.8-4.3 4.2-4.3 2.5 0 4.5 2.4 4.4 5.4.1 2.4-1.7 4.1-4.2 4.1m-2.9-5c0 1 .4 2.4 1.7 3.3 1.5 1.1 3.7.3 4-1.6.2-1.4-.1-2.6-.9-3.8-.8-1.1-2-1.6-3.1-1.2-1 .4-1.7 1.4-1.7 3.3"/><path fill="#fcd101" d="M91.7 33.2c0-2.4 2.6-4.7 5.4-4.7 2.3 0 4.2 2 4.2 4.2 0 2.3-2.8 4.7-5.4 4.7-2.2 0-4.2-2-4.2-4.2m3.9 2.8c2.1 0 4.4-1.8 4.4-3.6.1-1.4-1.3-2.7-2.7-2.7-2.1 0-4.3 1.9-4.3 3.7 0 1.6 1.1 2.6 2.6 2.6"/><path fill="#fcd001" d="M91.8 20c.8.5 1.4 1.1 1.9 1.7.7.8 1.4 1.7.9 2.9s-1.5 1.5-2.6 1.3c-.1.1-.1.2-.1.3.1 1.2-.1 2.3-1.4 2.9s-2.3 0-3.3-.8c-.7-.6-1.3-1.3-1.9-2.1zm-2.5 4.2c-.8.8-1.6 1.5-2.4 2.3.6.9 1.3 1.5 2.2 1.7 2.2-.8 2.3-2.1.2-4m.8-.7c.8.8 1.4 1.7 2.5 1.4.5-.1 1-.6 1-1.2 0-1-.6-1.6-1.4-2.1-.9.5-1.4 1.2-2.1 1.9m-17.3-5.1c-.5 0-.9-.1-1.2-.5.4-1.1.7-2.3 1.1-3.5-2.7-1.3-3.1 1.4-4.6 2.5-.4.1-.7-.3-1.3-.4 1.2-1.3 1.8-2.8 3.4-3.5-.3-.6-.8-1-.8-1.7-.1-1.5 1.1-2.9 2.6-2.8 1.3.1 2.5.5 3.7 1.3-.9 2.9-1.9 5.7-2.9 8.6m1.3-8c-1-.5-1.9-1-2.8-.3-.6.4-.8 1-.6 1.6.4 1 1.3 1.4 2.4 1.6.4-1 .7-2 1-2.9"/><path fill="#fbcc01" d="M36.6 92.9v3.2c-.5.4-.9.2-1.3.2v-8.9c1.7 0 3.3-.2 5 .1 1.1.2 1.8 1.3 1.8 2.5s-.7 2.2-1.8 2.6-2.3.1-3.7.3m.1-1.3c1 .1 2 .2 2.9 0 .7-.2 1.1-.6 1.1-1.4 0-.7-.3-1.3-1.1-1.4-1-.1-2-.2-2.9.1z"/><path fill="#fcd001" d="M64.1 6.7c.6 3.2 1.1 6.3 1.7 9.4-.5.2-.9.1-1.4-.1-.2-.9-.4-1.9-.6-2.9-1-.1-2-.3-3-.4-.5.9-.9 1.7-1.3 2.4-.4.3-.8.1-1.5 0 1.5-2.9 3-5.7 4.4-8.5.6-.2 1.1-.1 1.7.1m-1 1.3c-.6 1.3-1.2 2.4-1.7 3.6.9.1 1.6.2 2.3.3 0-1.3-.4-2.5-.6-3.9"/><path fill="#fcd100" d="M97.2 46.6c3.3.7 6.4 1.3 9.5 2 .2.6.3 1.1.1 1.6-2.8 1.4-5.6 2.7-8.5 4.1-.3-.4-.2-.8-.4-1.3.9-.5 1.8-.9 2.7-1.4.2-1-.3-1.9-.2-2.9-.9-.6-2-.4-2.9-.8-.2-.3-.3-.7-.3-1.3m4.2 2.2c.2.9.1 1.7.5 2.4 1.2-.5 2.2-1.1 3.5-1.7-1.5-.2-2.6-.4-4-.7"/><path fill="#fdd900" d="M78.1 96.3h-1.2v-4.1h-4.4c-.3 1.3 0 2.6-.2 3.9-.3.3-.7.2-1.2.1v-8.8q.45-.3 1.2 0v3.5h4.5v-3.4c.4-.3.8-.2 1.2-.1.1 3 .1 5.9.1 8.9"/><path fill="#fcd100" d="M33.9 96.2c-.5.3-.9.2-1.4.1-.3-.8-.7-1.7-1-2.6h-3.6c-.3.9-.6 1.7-.9 2.6-.5.2-.9.2-1.4 0q1.65-4.5 3.3-8.7c.5-.3.9-.1 1.5-.2 1.2 2.9 2.4 5.9 3.5 8.8m-2.8-3.7c-.4-1.2-.8-2.3-1.3-3.4-.1 0-.2.1-.3.1-.4 1.1-.8 2.1-1.2 3.3 1 .1 1.8.2 2.8 0"/><path fill="#fcd201" d="M87.8 96.2c-.5.3-.9.2-1.3.2-.4-.9-.7-1.7-1.1-2.7h-3.5c-.6.8-.6 1.8-1.1 2.6-.4.2-.8.1-1.3 0l3.3-8.7c.5-.3 1-.1 1.5-.2 1.1 2.9 2.3 5.9 3.5 8.8m-5.5-3.7c.9 0 1.7.1 2.6-.1-.4-1.2-.8-2.4-1.5-3.7-.2 1.5-.9 2.5-1.1 3.8m-21.7 3.7c-.5.3-.9.2-1.3.2-.4-.9-.7-1.8-1.1-2.7h-3.6c-.3.9-.6 1.7-.9 2.6-.4.2-.8.2-1.4 0 1.1-2.9 2.2-5.8 3.2-8.7.5-.3.9-.2 1.5-.1q1.8 4.2 3.6 8.7m-4.3-7.6c-.3 1.6-1.1 2.6-1.2 3.9.9.1 1.7.1 2.6 0-.4-1.3-.8-2.4-1.4-3.9"/><path fill="#fcd001" d="M99.1 41.2c-1.1.3-2.2.6-3.2.9-.3-.3-.4-.7-.4-1.3 2.8-.9 5.7-1.7 8.6-2.6.8 1.1 1.2 2.4 1.2 3.7 0 1.2-.6 2.1-1.8 2.5s-2.3.1-3.1-.9c-.7-.6-.9-1.5-1.3-2.3m4.4-1.4c-1.1.3-2.2.5-3.1 1 .1 1 .3 2 1.4 2.3.7.3 1.5.1 2-.5.6-.9.2-1.8-.3-2.8m-77.2-12c-.1.5-.5.7-.5.8-2.2-2.1-4.4-4.1-6.6-6.1.6-1 1.3-1.8 2.2-2.4q1.95-1.5 3.6 0c1.1 1.1 1.3 2.4.4 3.7-.4.6-.9 1.1-1.4 1.6.8.8 1.5 1.6 2.3 2.4m-5.6-5.7c.9.8 1.6 1.5 2.5 2.3.8-.6 1.6-1.2 1.4-2.4-.1-.8-.6-1.4-1.4-1.6-1.1-.1-1.7.8-2.5 1.7m-1.7 8c-.9-1.4-1.9-2.8-2.8-4.3 0-.4.3-.7.7-1.2 1.6 2.7 3.6 5 4.7 7.9.3 1 .1 1.9-.7 2.6-.4.1-.5-.2-.8-.4.5-1 .6-2-.3-3-2.2-.4-4.5-.7-6.8-1.1-.2-.6.3-.8.6-1.2l5.2.9c.1.1.1.2.3 0 0-.1 0-.1-.1-.2"/><path fill="#fcd101" d="M84.1 23.6c0 .4 0 .7-.3.8-2.1-.2-4-2-4.2-3.9a5.2 5.2 0 0 1 3.4-5.4c2.1-.7 4.5.3 5.7 2.2-.1.4-.4.5-.7.7-1.3-1.4-2.6-2.4-4.6-1.7-1.4.5-2.6 2.3-2.5 3.8.1 2 1.6 2.8 3.2 3.5M10.7 37.3c-.4.9-.8 1.6-1.1 2.3-.5.2-.7-.1-1.1-.3.9-2 1.8-4 2.7-5.9.5-.2.8 0 1.1.3-.3.7-.6 1.5-1 2.4 2.4 1.1 4.8 2.2 7.1 3.3.2.5-.1.9-.4 1.3-2.4-1.2-4.7-2.3-7.3-3.4"/><path fill="#130b0b" d="M98.1 73.7c.1 0 .2.1.3.1-.2 0-.2 0-.3-.1"/><path fill="#df0508" d="M30.1 28.8c6.6-6.1 14.4-9.6 23.3-10.4 11.7-1 21.8 2.9 30.1 10.9 6.2 5.9 9.7 13.5 11.1 22 1.1 6.6.2 13-2.3 19.2-8-4.1-16.1-8.1-24.1-12.2-2.4-1.2-4.9-2.5-7.3-3.7-.3-.2-.7-.2-1-.8 2.1.3 4.1.7 6.1 1l20.2 3.3c.4.1.7 0 1.1 0 0 .1.1.2.3.1-.1 0-.2-.1-.3-.1-1.1-.9-2.4-1.4-3.7-2L31.1 29.4c-.3-.1-.7-.4-1-.6"/><path fill="#de0508" d="M91.5 72.7c-1.6 3.6-3.8 6.9-6.3 9.9H28c-4.3-5-7.4-10.7-8.8-17.1-3-13 .5-24.4 8.8-34.5.1-.2.3-.3.5-.4L33 46.8c.2.8.5 1.7.7 2.7 2.2.4 4.4.7 6.8 1.2.7 2.5 1.4 5.1 2.1 7.7-.7 0-1-.3-1.4-.5-6.2-3.1-12.3-6.2-18.5-9.4-.4-.2-.8-.5-1.3-.5 0 0-.1-.1 0 0-.1 0 0 0 0 0 .2 2.1 1 4.1 1.5 6.1l4.2 15.3 7.2 1.2c8.9 1.5 17.8 2.9 26.7 4.4 6.2 1 12.5 2.1 18.7 3.1.4.1.7 0 1.1 0 0 .1.1.2.3.1-.1 0-.2-.1-.3-.1-1.2-1-2.7-1.5-4.1-2.2L62 68.4c-.3-.1-.5-.3-.7-.4l.1-.1 14.9 2.4c5.1.7 10.1 1.6 15.2 2.4"/><path fill="#fcfcfc" d="M27.8 68.7c-1.8-6.4-3.5-12.8-5.4-19.6 18.1 9.2 35.9 18.3 53.8 27.3 0 .1-.1.2-.1.3-16.1-2.6-32.2-5.3-48.3-8m65.5 3.5-5.6-.9c-9.4-1.6-18.8-3.1-28.3-4.7-.6-.1-1.2-.2-1.8-.5-4.7-2.4-9.3-4.7-14.1-7.1-1.3-4.7-2.6-9.4-4-14.4 18.1 9.2 35.9 18.3 53.8 27.3z"/><path fill="#fbfbfb" d="M38.7 43.4c-.1 1.4.6 2.6.9 3.9.2.8.4 1.5.6 2.4-2-.3-3.9-.6-5.9-1-1.8-6.4-3.5-12.8-5.4-19.6C47 38.3 64.8 47.4 82.6 56.4c0 .1-.1.2-.1.3l-5.6-.9c-6.3-1-12.6-2.1-18.9-3.1-.8-.1-1.6-.4-2.4-.7l-15.9-8.1c-.2-.2-.6-.5-1-.5q-.15 0 0 0c-.1 0-.2.2 0 0"/><path fill="#de0508" d="M61.4 68c-.2 0-.4-.1-.6-.1.3-.3.5-.2.7 0-.1 0-.1 0-.1.1"/><path fill="#df0708" d="M33.6 18.8c0 .1.1.1.1.2-.1.2-.2 0-.3-.1 0 .1.1 0 .2-.1m.2-4.9c-.1-.1-.1-.1 0-.2.1.1.1.2 0 .2"/><path fill="#e10e08" d="M67.3 88.7v6.5c-1.3.3-2.5.1-3.9.1.8-2.2.8-4.4 1.1-6.6z"/><path fill="#e00c08" d="M52.2 10.8c1.1-.1 2.2-.1 2.8.8.4.5.4 1.1 0 1.6-.7 1-1.7.8-2.7.7-.3-1-.1-2-.1-3.1"/><path fill="#e10d08" d="M52.2 9.5V7c.9-.2 1.8-.4 2.5.4.4.5.4 1.1 0 1.6-.7.8-1.6.9-2.5.5"/><path fill="#e00808" d="M40.4 12c0-1.9.7-2.9 1.7-3.2 1.2-.4 2.3 0 3.1 1.2.8 1.1 1.1 2.4.9 3.8-.3 1.9-2.5 2.7-4 1.6-1.3-1-1.7-2.3-1.7-3.4"/><path fill="#e00908" d="M95.6 36C94 36 93 34.9 93 33.4c0-1.8 2.2-3.7 4.3-3.7 1.5 0 2.8 1.3 2.7 2.7 0 1.8-2.3 3.6-4.4 3.6"/><path fill="#e00c08" d="M89.3 24.2c2 1.9 2 3.2-.1 3.9-.9-.2-1.7-.8-2.2-1.7.8-.7 1.5-1.4 2.3-2.2"/><path fill="#e11108" d="M90.1 23.5c.7-.7 1.2-1.4 2.1-1.8.8.5 1.4 1.1 1.4 2.1 0 .6-.4 1-1 1.2-1.2.1-1.8-.7-2.5-1.5"/><path fill="#e00c08" d="M74.1 10.4c-.3 1-.6 1.9-1 2.9-1.1-.2-2-.5-2.4-1.6-.3-.6 0-1.3.6-1.6 1-.7 1.9-.2 2.8.3M36.7 91.6v-2.8c1-.3 2-.2 2.9-.1.8.1 1.1.7 1.1 1.4 0 .8-.4 1.3-1.1 1.4-1 .2-1.9.1-2.9.1"/><path fill="#e11308" d="M63.1 8c.2 1.4.6 2.6.6 3.9-.8-.1-1.4-.2-2.3-.3.5-1.2 1.1-2.3 1.7-3.6m38.3 40.8c1.4.3 2.6.5 4 .7-1.3.6-2.3 1.1-3.5 1.7-.4-.7-.3-1.5-.5-2.4M31.1 92.5c-1 .2-1.8.2-2.7 0 .4-1.2.8-2.2 1.2-3.3.1 0 .2-.1.3-.1.3 1.1.8 2.2 1.2 3.4m51.2 0c.2-1.3.8-2.4 1.1-3.8.7 1.3 1 2.5 1.5 3.7-.9.3-1.7.2-2.6.1m-26-3.9c.6 1.5 1 2.6 1.5 3.9-.9.2-1.7.1-2.6 0 0-1.3.8-2.3 1.1-3.9"/><path fill="#e10d08" d="M103.5 39.8c.5 1 .9 1.9.2 2.8-.5.7-1.3.8-2 .5-1-.4-1.3-1.3-1.4-2.3 1-.5 2.1-.7 3.2-1"/><path fill="#e00908" d="M20.7 22.1c.7-1 1.4-1.8 2.5-1.6.8.1 1.3.7 1.4 1.6.1 1.2-.7 1.8-1.4 2.4-.8-.8-1.6-1.6-2.5-2.4"/><path fill="#df0708" d="M19 30.1c0 .1.1.1.1.2q-.15.15-.3 0c.1-.1.2-.1.2-.2"/><path fill="#130b0b" d="M87.4 58.2c.1 0 .2.1.3.1-.2.1-.3 0-.3-.1m-6.5 20c.1 0 .2.1.3.1-.2 0-.3 0-.3-.1M21.5 47.9q-.15 0 0 0m17.2-4.5c-.2.2-.1 0 0 0q-.15 0 0 0"/></svg>